# xmcd CD database file
#
# Track frame offsets:
#	182
#	18470
#	32940
#	45207
#	59860
#	78480
#	90705
#	106517
#	121320
#	136935
#
# Disc length: 1968 seconds
#
# Revision: 2
# Processed by: cddbd v1.5.2PL0 Copyright (c) Steve Scherf et al.
# Submitted via: CDex 1.79
#
DISCID=7b07ae0a
DTITLE=Curtis Day - Curtis Day
DYEAR=1996
DGENRE=Country
TTITLE0=My Baby's Cookin'
TTITLE1=The Truth Is Hard To Swallow
TTITLE2=Living Well Beyond My Means
TTITLE3=Hold That Thought
TTITLE4=I Can Do It In My Sleep
TTITLE5=The Cowboy Stomp
TTITLE6=Pull The Wool Over My Heart
TTITLE7=Athens Grease
TTITLE8=Instead Of Losing You
TTITLE9=Rock The Boat
EXTD=YEAR: 1996
EXTT0=
EXTT1=
EXTT2=
EXTT3=
EXTT4=
EXTT5=
EXTT6=
EXTT7=
EXTT8=
EXTT9=
PLAYORDER=
